<svg width="512" height="512" viewBox="0 0 512 512" fill="none" xmlns="http://www.w3.org/2000/svg">
<path d="M256.21 368.71C249.777 368.71 243.589 365.235 237.901 358.82C232.213 352.405 227.068 343.093 222.737 331.544C214.077 308.45 208.71 276.512 208.71 241.21C208.71 205.908 214.077 173.97 222.737 150.876C227.068 139.327 232.213 130.016 237.901 123.601C243.589 117.185 249.777 113.71 256.21 113.71C262.643 113.71 268.832 117.185 274.52 123.601C280.207 130.016 285.352 139.327 289.683 150.876C298.344 173.97 303.71 205.908 303.71 241.21C303.71 276.512 298.344 308.45 289.683 331.544C285.352 343.093 280.207 352.405 274.52 358.82C268.832 365.235 262.643 368.71 256.21 368.71Z" fill="#54005C" stroke="#333333"/>
<path d="M319.96 351.629C314.389 354.845 307.292 354.93 299.158 352.218C291.025 349.506 281.914 344.015 272.389 336.178C253.342 320.508 232.725 295.533 215.074 264.96C197.423 234.388 186.102 204.045 182.055 179.715C180.031 167.548 179.831 156.912 181.549 148.512C183.267 140.112 186.889 134.009 192.46 130.792C198.031 127.575 205.128 127.491 213.262 130.203C221.395 132.915 230.507 138.406 240.032 146.242C259.079 161.912 279.695 186.888 297.346 217.46C314.998 248.033 326.319 278.375 330.366 302.705C332.39 314.873 332.59 325.509 330.872 333.908C329.153 342.308 325.531 348.412 319.96 351.629Z" fill="#770082" stroke="#333333"/>
<path d="M366.628 304.96C363.412 310.531 357.308 314.153 348.908 315.872C340.509 317.59 329.872 317.39 317.705 315.366C293.375 311.319 263.033 299.998 232.46 282.346C201.888 264.695 176.912 244.079 161.242 225.032C153.406 215.507 147.915 206.395 145.203 198.262C142.491 190.128 142.575 183.031 145.792 177.46C149.009 171.889 155.112 168.267 163.512 166.549C171.912 164.831 182.548 165.031 194.715 167.055C219.045 171.102 249.388 182.423 279.96 200.074C310.533 217.725 335.508 238.342 351.178 257.389C359.015 266.914 364.506 276.025 367.218 284.158C369.93 292.292 369.845 299.389 366.628 304.96Z" fill="#B500C5" stroke="#333333"/>
<path d="M383.71 241.21C383.71 247.643 380.235 253.832 373.82 259.52C367.405 265.207 358.093 270.352 346.544 274.683C323.45 283.343 291.512 288.71 256.21 288.71C220.908 288.71 188.97 283.343 165.876 274.683C154.327 270.352 145.016 265.207 138.601 259.52C132.185 253.832 128.71 247.643 128.71 241.21C128.71 234.777 132.185 228.589 138.601 222.901C145.016 217.213 154.327 212.068 165.876 207.737C188.97 199.077 220.908 193.71 256.21 193.71C291.512 193.71 323.45 199.077 346.544 207.737C358.093 212.068 367.405 217.213 373.82 222.901C380.235 228.589 383.71 234.777 383.71 241.21Z" fill="#EB00FF" stroke="#333333"/>
<path d="M366.628 177.46C369.845 183.031 369.93 190.128 367.218 198.262C364.506 206.395 359.015 215.507 351.178 225.032C335.508 244.079 310.533 264.695 279.96 282.346C249.388 299.998 219.045 311.319 194.715 315.366C182.548 317.39 171.912 317.59 163.512 315.872C155.112 314.153 149.009 310.531 145.792 304.96C142.575 299.389 142.491 292.292 145.203 284.158C147.915 276.025 153.406 266.914 161.242 257.389C176.912 238.342 201.888 217.725 232.46 200.074C263.033 182.423 293.375 171.102 317.705 167.055C329.872 165.031 340.509 164.831 348.908 166.549C357.308 168.267 363.412 171.889 366.628 177.46Z" fill="#F043FF" stroke="#333333"/>
<path d="M319.96 130.792C325.531 134.009 329.153 140.112 330.872 148.512C332.59 156.912 332.39 167.548 330.366 179.715C326.319 204.045 314.998 234.388 297.346 264.96C279.695 295.533 259.079 320.508 240.032 336.178C230.507 344.015 221.395 349.506 213.262 352.218C205.128 354.93 198.031 354.845 192.46 351.628C186.889 348.412 183.267 342.308 181.549 333.908C179.831 325.509 180.031 314.872 182.055 302.705C186.102 278.375 197.423 248.033 215.074 217.46C232.725 186.888 253.342 161.912 272.389 146.242C281.914 138.406 291.025 132.914 299.158 130.203C307.292 127.491 314.389 127.575 319.96 130.792Z" fill="#F36EFF" stroke="#333333"/>
<path d="M157.854 395.263C156.894 392.479 155.862 390.583 154.758 389.575C153.702 388.519 152.094 387.895 149.934 387.703V386.263C150.174 386.263 150.534 386.239 151.014 386.191C151.446 386.143 151.902 386.119 152.382 386.119C155.022 386.119 157.398 386.719 159.51 387.919C161.67 389.119 163.398 391.567 164.694 395.263L174.342 423.055L182.046 400.231L180.318 395.263C179.358 392.479 178.326 390.583 177.222 389.575C176.166 388.519 174.558 387.895 172.398 387.703V386.263C172.638 386.263 172.974 386.239 173.406 386.191C173.886 386.143 174.366 386.119 174.846 386.119C177.486 386.119 179.862 386.719 181.974 387.919C184.134 389.119 185.862 391.567 187.158 395.263L196.806 423.055L209.118 386.839H212.214L195.726 435.079H194.286L183.63 404.767L173.262 435.079H171.822L157.854 395.263ZM233.037 389.719H226.557C220.557 389.719 217.557 392.479 217.557 397.999H216.117V392.599C216.117 388.759 218.157 386.839 222.237 386.839H255.717V389.719H239.517V434.359H233.037V389.719ZM268.754 435.079C265.49 435.079 262.73 434.311 260.474 432.775C258.218 431.191 256.514 429.079 255.362 426.439C254.21 423.751 253.634 420.751 253.634 417.439C253.634 414.175 254.21 411.199 255.362 408.511C256.514 405.823 258.17 403.711 260.33 402.175C262.538 400.591 265.106 399.799 268.034 399.799C272.882 399.799 276.482 401.167 278.834 403.903C281.234 406.591 282.434 410.503 282.434 415.639L282.29 418.519H260.474C260.474 422.551 261.338 425.839 263.066 428.383C264.794 430.927 267.17 432.199 270.194 432.199C272.45 432.199 274.346 431.719 275.882 430.759C277.466 429.799 278.93 428.359 280.274 426.439L281.714 427.519C280.13 430.159 278.282 432.079 276.17 433.279C274.058 434.479 271.586 435.079 268.754 435.079ZM275.594 415.639C275.594 411.415 274.97 408.199 273.722 405.991C272.474 403.783 270.578 402.679 268.034 402.679C266.594 402.679 265.298 403.255 264.146 404.407C262.994 405.511 262.082 407.047 261.41 409.015C260.786 410.983 260.474 413.191 260.474 415.639H275.594ZM304.63 435.079C301.174 435.079 298.246 434.311 295.846 432.775C293.494 431.191 291.718 429.079 290.518 426.439C289.366 423.751 288.79 420.751 288.79 417.439C288.79 414.127 289.366 411.151 290.518 408.511C291.718 405.823 293.494 403.711 295.846 402.175C298.246 400.591 301.174 399.799 304.63 399.799C309.91 399.799 313.39 400.639 315.07 402.319C315.886 403.135 316.39 404.143 316.582 405.343C316.774 406.495 316.87 408.607 316.87 411.679H315.43C315.238 408.703 314.302 406.471 312.622 404.983C310.942 403.447 308.758 402.679 306.07 402.679C302.614 402.679 299.998 404.047 298.222 406.783C296.494 409.519 295.63 413.071 295.63 417.439C295.63 421.807 296.494 425.359 298.222 428.095C299.998 430.831 302.614 432.199 306.07 432.199C308.518 432.199 310.534 431.743 312.118 430.831C313.702 429.871 315.166 428.407 316.51 426.439L317.95 427.519C316.366 430.207 314.494 432.151 312.334 433.351C310.174 434.503 307.606 435.079 304.63 435.079ZM325.539 395.479C325.539 393.031 325.203 391.231 324.531 390.079C323.859 388.879 322.515 388.279 320.499 388.279H319.059V386.839H325.539C327.315 386.839 328.635 387.079 329.499 387.559C330.411 387.991 331.059 388.807 331.443 390.007C331.827 391.207 332.019 393.031 332.019 395.479V403.399C333.027 402.391 334.323 401.551 335.907 400.879C337.539 400.159 339.363 399.799 341.379 399.799C344.979 399.799 347.907 400.759 350.163 402.679C352.467 404.599 353.619 407.959 353.619 412.759V434.359H347.139V412.759C347.139 409.399 346.371 406.951 344.835 405.415C343.347 403.831 341.475 403.039 339.219 403.039C336.675 403.039 334.275 404.311 332.019 406.855V434.359H325.539V395.479Z" fill="#333333"/>
<path d="M221.761 224.231C220.481 220.519 219.105 217.991 217.633 216.647C216.225 215.239 214.081 214.407 211.201 214.151V212.231C211.521 212.231 212.001 212.199 212.641 212.135C213.217 212.071 213.825 212.039 214.465 212.039C217.985 212.039 221.153 212.839 223.969 214.439C226.849 216.039 229.153 219.303 230.881 224.231L243.745 261.287L254.017 230.855L251.713 224.231C250.433 220.519 249.057 217.991 247.585 216.647C246.177 215.239 244.033 214.407 241.153 214.151V212.231C241.473 212.231 241.921 212.199 242.497 212.135C243.137 212.071 243.777 212.039 244.417 212.039C247.937 212.039 251.105 212.839 253.921 214.439C256.801 216.039 259.105 219.303 260.833 224.231L273.697 261.287L290.113 212.999H294.241L272.257 277.319H270.337L256.129 236.903L242.305 277.319H240.385L221.761 224.231Z" fill="#333333"/>
<circle cx="255.851" cy="241.359" r="80" stroke="#333333" stroke-width="2"/>
</svg>
