<svg width="512" height="512" viewBox="0 0 512 512" fill="none" xmlns="http://www.w3.org/2000/svg">
<path d="M256 433.384C246.984 433.384 238.335 428.513 230.409 419.573C222.483 410.634 215.323 397.67 209.3 381.607C197.254 349.486 189.794 305.077 189.794 256C189.794 206.923 197.254 162.514 209.3 130.393C215.323 114.33 222.483 101.366 230.409 92.427C238.335 83.4871 246.984 78.6163 256 78.6163C265.016 78.6163 273.665 83.4871 281.591 92.427C289.517 101.366 296.677 114.33 302.7 130.393C314.746 162.514 322.206 206.923 322.206 256C322.206 305.077 314.746 349.486 302.7 381.607C296.677 397.67 289.517 410.634 281.591 419.573C273.665 428.513 265.016 433.384 256 433.384Z" fill="#54005C" stroke="#333333"/>
<path d="M344.692 409.619C336.884 414.127 326.958 414.233 315.624 410.454C304.291 406.675 291.608 399.028 278.36 388.129C251.868 366.334 223.202 331.605 198.664 289.103C174.125 246.601 158.382 204.412 152.753 170.571C149.938 153.649 149.657 138.842 152.051 127.137C154.445 115.432 159.5 106.889 167.308 102.381C175.116 97.8733 185.042 97.767 196.376 101.546C207.709 105.325 220.392 112.972 233.64 123.871C260.132 145.666 288.798 180.395 313.336 222.897C337.875 265.399 353.618 307.588 359.247 341.429C362.062 358.351 362.343 373.158 359.949 384.863C357.555 396.568 352.5 405.111 344.692 409.619Z" fill="#770082" stroke="#333333"/>
<path d="M409.619 344.692C405.111 352.5 396.568 357.555 384.863 359.949C373.158 362.343 358.351 362.062 341.429 359.247C307.588 353.618 265.399 337.875 222.897 313.336C180.395 288.798 145.666 260.132 123.871 233.64C112.972 220.392 105.325 207.709 101.546 196.376C97.767 185.042 97.8733 175.116 102.381 167.308C106.889 159.5 115.432 154.445 127.137 152.051C138.842 149.657 153.649 149.938 170.571 152.753C204.412 158.382 246.601 174.125 289.103 198.664C331.605 223.202 366.334 251.867 388.129 278.36C399.028 291.608 406.675 304.291 410.454 315.624C414.233 326.958 414.127 336.884 409.619 344.692Z" fill="#B500C5" stroke="#333333"/>
<path d="M433.384 256C433.384 265.016 428.513 273.665 419.573 281.591C410.634 289.517 397.67 296.677 381.607 302.7C349.486 314.746 305.077 322.206 256 322.206C206.923 322.206 162.514 314.746 130.393 302.7C114.33 296.677 101.366 289.517 92.427 281.591C83.4871 273.665 78.6163 265.016 78.6163 256C78.6163 246.984 83.4871 238.335 92.427 230.409C101.366 222.483 114.33 215.323 130.393 209.3C162.514 197.254 206.923 189.794 256 189.794C305.077 189.794 349.486 197.254 381.607 209.3C397.67 215.323 410.634 222.483 419.573 230.409C428.513 238.335 433.384 246.984 433.384 256Z" fill="#EB00FF" stroke="#333333"/>
<path d="M409.619 167.308C414.127 175.116 414.233 185.042 410.454 196.376C406.675 207.709 399.028 220.392 388.129 233.64C366.334 260.132 331.605 288.798 289.103 313.336C246.601 337.875 204.412 353.618 170.571 359.247C153.649 362.062 138.842 362.343 127.137 359.949C115.432 357.555 106.889 352.5 102.381 344.692C97.8733 336.884 97.767 326.958 101.546 315.624C105.325 304.291 112.972 291.608 123.871 278.36C145.666 251.868 180.395 223.202 222.897 198.664C265.399 174.125 307.588 158.382 341.429 152.753C358.351 149.938 373.158 149.657 384.863 152.051C396.568 154.445 405.111 159.5 409.619 167.308Z" fill="#F043FF" stroke="#333333"/>
<path d="M344.692 102.381C352.5 106.889 357.555 115.432 359.949 127.137C362.343 138.842 362.062 153.649 359.247 170.571C353.618 204.412 337.875 246.601 313.336 289.103C288.798 331.605 260.132 366.334 233.64 388.129C220.392 399.028 207.709 406.675 196.376 410.454C185.042 414.233 175.116 414.127 167.308 409.619C159.5 405.111 154.445 396.568 152.051 384.863C149.657 373.158 149.938 358.351 152.753 341.429C158.382 307.588 174.125 265.399 198.664 222.897C223.202 180.395 251.868 145.666 278.36 123.871C291.608 112.972 304.291 105.325 315.624 101.546C326.958 97.7669 336.884 97.8732 344.692 102.381Z" fill="#F36EFF" stroke="#333333"/>
<path d="M204.365 226.808C202.445 221.24 200.381 217.448 198.173 215.432C196.061 213.32 192.845 212.072 188.525 211.688V208.808C189.005 208.808 189.725 208.76 190.685 208.664C191.549 208.568 192.461 208.52 193.421 208.52C198.701 208.52 203.453 209.72 207.677 212.12C211.997 214.52 215.453 219.416 218.045 226.808L237.341 282.392L252.749 236.744L249.293 226.808C247.373 221.24 245.309 217.448 243.101 215.432C240.989 213.32 237.773 212.072 233.453 211.688V208.808C233.933 208.808 234.605 208.76 235.469 208.664C236.429 208.568 237.389 208.52 238.349 208.52C243.629 208.52 248.381 209.72 252.605 212.12C256.925 214.52 260.381 219.416 262.973 226.808L282.269 282.392L306.893 209.96H313.085L280.109 306.44H277.229L255.917 245.816L235.181 306.44H232.301L204.365 226.808Z" fill="#333333"/>
<circle cx="255.501" cy="256.207" r="111.177" stroke="#333333" stroke-width="2"/>
</svg>
